# xmcd
#
# Track frame offsets:
#	150
#	18296
#	39362
#	60412
#	82638
#	98659
#	121011
#	146143
#	165519
#	179917
#	192769
#	215118
#	241917
#
# Disc length: 3339 seconds
#
# Revision: 0
# Processed by: cddbd v1.5.2PL0 Copyright (c) Steve Scherf et al.
# Submitted via: dBpowerAMP V4.0
#
DISCID=a30d090d
DTITLE=The Legionnaires - Long Time Comin'
DYEAR=2007
DGENRE=Country
TTITLE0=A Town With No Titties
TTITLE1=You Got the Worms
TTITLE2=Take Me to the Other Side
TTITLE3=Honeysuckle Glaze
TTITLE4=You Never Let Me Pee on You
TTITLE5=I Wish We Didn't Have Sex Last Night
TTITLE6=Until My Days Are Done
TTITLE7=Feets Don't Fail Me Now
TTITLE8=Suck My Balls, It's Christmas
TTITLE9=Back Alley Hash
TTITLE10=The Ballad of José
TTITLE11=The Sultan of Brunei
TTITLE12=Fight Song (hidden track)
EXTD=
EXTT0=
EXTT1=
EXTT2=
EXTT3=
EXTT4=
EXTT5=
EXTT6=
EXTT7=
EXTT8=
EXTT9=
EXTT10=
EXTT11=
EXTT12=
PLAYORDER=
